<svg xmlns="http://www.w3.org/2000/svg" version="1.1" viewBox="-5.0 -10.0 110.0 135.0">
 <path d="m50 26.488c0.35547 0 0.70703 0.007813 1.0586 0.027344 0.003906-2.0898 0.21094-4.4453 1.1953-6 1.4414-2.2852 4.2188-1.4766 6.5117-2.1289 2.7266-0.77734 3.8867-2.7305 4.4102-5.4648 0.097657-0.50391-0.22656-0.98438-0.73438-1.082-0.50391-0.097656-0.98438 0.22656-1.082 0.73438-0.25 1.3125-0.6875 2.582-1.668 3.3438-2.8125 2.1953-6.3594-0.57812-9 3.6133-1.168 1.8516-1.4688 4.5391-1.4766 6.9727 0.26172-0.011718 0.52344-0.015625 0.78516-0.015625zm2.8555 0.19141c10.504 1.4141 18.566 10.473 18.566 21.23v20.641c0 11.785-9.6367 21.422-21.422 21.422-11.781 0-21.422-9.6367-21.422-21.422v-20.641c0-10.855 8.2109-19.977 18.844-21.266-0.003906-2.8711 0.35547-5.8594 1.75-8.0664 1.5312-2.4258 3.8125-3.4297 6.6445-3.4336 0.69922-0.023437 1.2852-0.085937 1.7656-0.20312 0.79688-0.19141 1.2188-0.46484 1.5547-1.1797 0.1875-0.39453 0.33594-0.89844 0.45312-1.5234 0.14062-0.73438 0.57031-1.3477 1.1484-1.7383 1.2422-0.84375 2.9336-0.51953 3.7773 0.72266 0.39062 0.57812 0.5625 1.3008 0.42188 2.0352-0.42969 2.2383-1.2773 4.1758-3.0078 5.5273-1.6836 1.3164-3.7734 1.7266-6.0156 1.7891h-0.074218c-0.86328-0.003907-1.6211 0.1875-2.0703 0.89844-0.78125 1.2383-0.92578 3.4844-0.91797 5.207zm2.9883-6.1055c-0.027344 0-0.019531 0 0 0zm0 0c0.035156 0 0.10156 0 0 0zm-5.8438 28.113c1.4844 0 2.6992-1.2148 2.6992-2.6992v-8.0391c0-1.4844-1.2148-2.6992-2.6992-2.6992s-2.6992 1.2148-2.6992 2.6992v8.0391c0 1.4844 1.2188 2.6992 2.6992 2.6992zm3.1797 0.48047c-0.61328 0.61328-1.3984 1.0508-2.2773 1.2305v2.4922h18.719v-4.9805c0-10.523-8.375-19.125-18.719-19.602v5.2305c2.0664 0.42188 3.6016 2.2578 3.6016 4.4102v8.0391c0 1.2383-0.50781 2.3633-1.3203 3.1797zm16.441 5.5195h-39.242v13.859c0 10.789 8.832 19.621 19.621 19.621s19.621-8.832 19.621-19.621zm-39.242-1.8008h18.719v-2.4922c-0.87891-0.19141-1.6406-0.58984-2.2773-1.2305-0.81641-0.81641-1.3242-1.9414-1.3242-3.1797v-8.0391c0-2.168 1.5352-3.9766 3.6016-4.4102v-5.2305c-10.344 0.47656-18.719 9.0781-18.719 19.602z"/>
<text x="0.0" y="117.5" font-size="5.0" font-weight="bold" font-family="Arbeit Regular, Helvetica, Arial-Unicode, Arial, Sans-serif" fill="#000000">Created by Andhika Pramanto</text><text x="0.0" y="122.5" font-size="5.0" font-weight="bold" font-family="Arbeit Regular, Helvetica, Arial-Unicode, Arial, Sans-serif" fill="#000000">from Noun Project</text></svg>