<svg xmlns="http://www.w3.org/2000/svg" data-name="Layer 1" viewBox="0 0 64 80" x="0px" y="0px"><defs><style>.cls-1{fill:none;}</style></defs><title>business 1</title><path class="cls-1" d="M39,27.82a1.74,1.74,0,0,0,1.73-1.69H37.25A1.74,1.74,0,0,0,39,27.82Z"/><path class="cls-1" d="M39,15.57a1.73,1.73,0,0,0-1.73,1.69h3.46A1.73,1.73,0,0,0,39,15.57Z"/><rect class="cls-1" x="37.25" y="22.69" width="3.47" height="1.44"/><path class="cls-1" d="M25.67,40.53a13.31,13.31,0,0,0,26.62,0V33H25.67Z"/><path class="cls-1" d="M40,10.21v2.38H38V10.21A13.33,13.33,0,0,0,25.67,23.47V31H52.29V23.47A13.33,13.33,0,0,0,40,10.21Zm2.74,15.87a3.74,3.74,0,1,1-7.47,0V17.3a3.74,3.74,0,0,1,7.47,0Z"/><rect class="cls-1" x="37.25" y="19.26" width="3.47" height="1.44"/><path d="M16.42,14.87a1,1,0,0,0,1.65-1.12L14.81,8.93a1,1,0,0,0-1.66,0L9.89,13.75a1,1,0,0,0,.82,1.56,1,1,0,0,0,.83-.44L13,12.75v38.5l-1.44-2.12a1,1,0,0,0-1.65,1.12l3.26,4.82a1,1,0,0,0,1.66,0l3.26-4.82a1,1,0,0,0-1.65-1.12L15,51.25V12.75Z"/><path d="M39,8.16A15.33,15.33,0,0,0,23.67,23.47V40.53a15.31,15.31,0,0,0,30.62,0V23.47A15.33,15.33,0,0,0,39,8.16ZM52.29,40.53a13.31,13.31,0,0,1-26.62,0V33H52.29Zm0-9.53H25.67V23.47A13.33,13.33,0,0,1,38,10.21v2.38h2V10.21A13.33,13.33,0,0,1,52.29,23.47Z"/><path d="M39,13.57a3.73,3.73,0,0,0-3.73,3.73v8.78a3.74,3.74,0,1,0,7.47,0V17.3A3.74,3.74,0,0,0,39,13.57Zm0,2a1.73,1.73,0,0,1,1.73,1.69H37.25A1.73,1.73,0,0,1,39,15.57Zm0,12.25a1.74,1.74,0,0,1-1.73-1.69h3.46A1.74,1.74,0,0,1,39,27.82Zm1.74-3.69H37.25V22.69h3.47Zm0-3.44H37.25V19.26h3.47Z"/><text x="0" y="79" fill="#000000" font-size="5px" font-weight="bold" font-family="'Helvetica Neue', Helvetica, Arial-Unicode, Arial, Sans-serif">Created by Romansa Design Art</text><text x="0" y="84" fill="#000000" font-size="5px" font-weight="bold" font-family="'Helvetica Neue', Helvetica, Arial-Unicode, Arial, Sans-serif">from the Noun Project</text></svg>