<svg xmlns="http://www.w3.org/2000/svg" data-name="Layer 1" viewBox="0 0 64 80" x="0px" y="0px"><defs><style>.cls-1{fill:none;}</style></defs><title>business 1</title><path class="cls-1" d="M15,38v8.33A8.68,8.68,0,0,0,23.65,55h6.57a8.68,8.68,0,0,0,8.68-8.67V38H15Z"/><path class="cls-1" d="M25.94,19H23.65A8.68,8.68,0,0,0,15,27.66V36h11Z"/><path class="cls-1" d="M31.22,19V32.31H38.9V27.66A8.69,8.69,0,0,0,31.22,19Z"/><path d="M39.9,36h-12V18a1,1,0,0,0-1-1H23.65A10.69,10.69,0,0,0,13,27.66V46.31A10.69,10.69,0,0,0,23.65,57h6.57A10.69,10.69,0,0,0,40.9,46.31V37A1,1,0,0,0,39.9,36ZM15,27.66A8.68,8.68,0,0,1,23.65,19h2.29V36H15ZM38.9,46.31A8.68,8.68,0,0,1,30.22,55H23.65A8.68,8.68,0,0,1,15,46.31V38H38.9Z"/><path d="M30.22,17a1,1,0,0,0-1,1V33.31a1,1,0,0,0,1,1H39.9a1,1,0,0,0,1-1V27.66A10.69,10.69,0,0,0,30.22,17ZM38.9,32.31H31.22V19a8.69,8.69,0,0,1,7.68,8.62Z"/><path d="M39.7,18.34a1,1,0,0,0,.7-.29l5.24-5.24a1,1,0,1,0-1.41-1.41L39,16.64a1,1,0,0,0,0,1.41A1,1,0,0,0,39.7,18.34Z"/><path d="M50,20.72H42.61a1,1,0,0,0,0,2H50a1,1,0,0,0,1-1A1,1,0,0,0,50,20.72Z"/><path d="M35.32,16.43a1,1,0,0,0,1-1V8a1,1,0,0,0-2,0v7.41A1,1,0,0,0,35.32,16.43Z"/><text x="0" y="79" fill="#000000" font-size="5px" font-weight="bold" font-family="'Helvetica Neue', Helvetica, Arial-Unicode, Arial, Sans-serif">Created by Romansa Design Art</text><text x="0" y="84" fill="#000000" font-size="5px" font-weight="bold" font-family="'Helvetica Neue', Helvetica, Arial-Unicode, Arial, Sans-serif">from the Noun Project</text></svg>