<svg xmlns="http://www.w3.org/2000/svg" data-name="Layer 1" viewBox="0 0 64 80" x="0px" y="0px"><defs><style>.cls-1{fill:none;}</style></defs><title>business 1</title><path class="cls-1" d="M32.78,19a8.69,8.69,0,0,0-7.68,8.62v4.65h7.68Z"/><path class="cls-1" d="M25.1,38v8.33A8.68,8.68,0,0,0,33.78,55h6.57A8.68,8.68,0,0,0,49,46.31V38H25.1Z"/><path class="cls-1" d="M40.35,19H38.06V36H49V27.66A8.68,8.68,0,0,0,40.35,19Z"/><path d="M40.35,17H37.06a1,1,0,0,0-1,1V36h-12a1,1,0,0,0-1,1v9.33A10.69,10.69,0,0,0,33.78,57h6.57A10.69,10.69,0,0,0,51,46.31V27.66A10.69,10.69,0,0,0,40.35,17ZM49,46.31A8.68,8.68,0,0,1,40.35,55H33.78a8.68,8.68,0,0,1-8.68-8.67V38H49ZM49,36h-11V19h2.29A8.68,8.68,0,0,1,49,27.66Z"/><path d="M23.1,33.31a1,1,0,0,0,1,1h9.68a1,1,0,0,0,1-1V18a1,1,0,0,0-1-1A10.69,10.69,0,0,0,23.1,27.66Zm2-5.65A8.69,8.69,0,0,1,32.78,19V32.31H25.1Z"/><path d="M23.6,18.05a1,1,0,0,0,.7.29,1,1,0,0,0,.71-.29,1,1,0,0,0,0-1.41L19.77,11.4a1,1,0,1,0-1.41,1.41Z"/><path d="M21.39,20.72H14a1,1,0,0,0-1,1,1,1,0,0,0,1,1h7.41a1,1,0,0,0,0-2Z"/><path d="M28.68,16.43a1,1,0,0,0,1-1V8a1,1,0,0,0-2,0v7.41A1,1,0,0,0,28.68,16.43Z"/><text x="0" y="79" fill="#000000" font-size="5px" font-weight="bold" font-family="'Helvetica Neue', Helvetica, Arial-Unicode, Arial, Sans-serif">Created by Romansa Design Art</text><text x="0" y="84" fill="#000000" font-size="5px" font-weight="bold" font-family="'Helvetica Neue', Helvetica, Arial-Unicode, Arial, Sans-serif">from the Noun Project</text></svg>